<svg xmlns="http://www.w3.org/2000/svg" viewBox="0 0 16 12"><defs><style>.cls-1{fill:#fff;}</style></defs><title>openex资源 1</title><g id="图层_2" data-name="图层 2"><g id="图层_1-2" data-name="图层 1"><g id="图层_2-2" data-name="图层 2"><g id="svg2989"><g id="g2991"><path id="path2993" class="cls-1" d="M14.86,10.64V4.09a5.14,5.14,0,0,1-.62.57q-2.39,1.71-3.81,2.88-.46.37-.75.57a4.18,4.18,0,0,1-.77.41,2.32,2.32,0,0,1-.9.21H8a2.32,2.32,0,0,1-.9-.21,4.2,4.2,0,0,1-.84-.41Q6,7.9,5.54,7.53,4.15,6.41,1.8,4.65a5.14,5.14,0,0,1-.62-.57v6.55a.28.28,0,0,0,.29.27H14.57A.28.28,0,0,0,14.86,10.64Zm0-8.92V1.26l0-.08c0-.08,0-.08-.08-.06a.16.16,0,0,1-.13,0H1.43a.28.28,0,0,0-.29.27A3,3,0,0,0,2.45,3.78L6,6.48l.31.25L6.77,7l.41.28a2.42,2.42,0,0,0,.45.23A1.1,1.1,0,0,0,8,7.64H8a1.1,1.1,0,0,0,.39-.08,2.42,2.42,0,0,0,.45-.23l.4-.27.41-.32L10,6.5l3.59-2.7a4.06,4.06,0,0,0,.9-1A2.06,2.06,0,0,0,14.86,1.71ZM16,1.4v9.24A1.41,1.41,0,0,1,14.57,12H1.43a1.41,1.41,0,0,1-1-.4,1.28,1.28,0,0,1-.42-1V1.36A1.28,1.28,0,0,1,.42.4a1.41,1.41,0,0,1,1-.4H14.57a1.41,1.41,0,0,1,1,.4,1.28,1.28,0,0,1,.42,1Z"/></g></g></g></g></g></svg>