<?xml version="1.0" encoding="utf-8"?>
<!-- Generator: Adobe Illustrator 21.0.0, SVG Export Plug-In . SVG Version: 6.00 Build 0)  -->
<svg version="1.1" id="图层_1" xmlns="http://www.w3.org/2000/svg" xmlns:xlink="http://www.w3.org/1999/xlink" x="0px" y="0px"
	 viewBox="0 0 16 12" style="enable-background:new 0 0 16 12;" xml:space="preserve">
<style type="text/css">
	.st0{opacity:0.87;}
	.st1{fill:#FFFFFF;}
</style>
<title>openex资源 1</title>
<g id="图层_2" class="st0">
	<g id="图层_1-2">
		<g id="图层_2-2">
			<g id="svg2989">
				<g id="g2991">
					<path id="path2993" class="st1" d="M14.9,10.6V4.1c-0.2,0.2-0.4,0.4-0.6,0.6c-1.6,1.1-2.9,2.1-3.8,2.9C10.1,7.8,9.9,8,9.7,8.1
						C9.4,8.3,9.2,8.4,8.9,8.5C8.6,8.6,8.3,8.7,8,8.7h0c-0.3,0-0.6-0.1-0.9-0.2C6.8,8.4,6.5,8.3,6.3,8.1C6.1,8,5.8,7.8,5.5,7.5
						C4.6,6.8,3.4,5.8,1.8,4.7C1.6,4.5,1.4,4.3,1.2,4.1v6.6c0,0.2,0.1,0.3,0.3,0.3c0,0,0,0,0,0h13.1C14.7,10.9,14.8,10.8,14.9,10.6z
						 M14.9,1.7V1.3V1.2c0-0.1,0-0.1-0.1-0.1c0,0-0.1,0-0.1,0H1.4c-0.2,0-0.3,0.1-0.3,0.3c0,0,0,0,0,0c0,1,0.5,1.8,1.3,2.4L6,6.5
						l0.3,0.3L6.8,7l0.4,0.3c0.1,0.1,0.3,0.2,0.4,0.2C7.7,7.6,7.9,7.6,8,7.6l0,0c0.1,0,0.3,0,0.4-0.1c0.2-0.1,0.3-0.1,0.4-0.2
						l0.4-0.3l0.4-0.3L10,6.5l3.6-2.7c0.4-0.3,0.7-0.6,0.9-1C14.7,2.5,14.8,2.1,14.9,1.7L14.9,1.7z M16,1.4v9.2
						c0,0.8-0.7,1.4-1.4,1.4H1.4c-0.4,0-0.7-0.1-1-0.4C0.1,11.3,0,11,0,10.6V1.4c0-0.4,0.1-0.7,0.4-1C0.7,0.1,1,0,1.4,0h13.1
						c0.4,0,0.7,0.1,1,0.4C15.9,0.7,16,1,16,1.4L16,1.4z"/>
				</g>
			</g>
		</g>
	</g>
</g>
</svg>
