<svg xmlns="http://www.w3.org/2000/svg" viewBox="0 0 16 12"><defs><style>.cls-1{fill:#fff;}</style></defs><title>op资源 1</title><g id="图层_2" data-name="图层 2"><g id="图层_1-2" data-name="图层 1"><g id="图层_2-2" data-name="图层 2"><g id="svg2"><g id="g4"><path id="path6" class="cls-1" d="M16,3.87v6.76A1.4,1.4,0,0,1,14.57,12H1.43a1.41,1.41,0,0,1-1-.4,1.28,1.28,0,0,1-.42-1V3.87a4.67,4.67,0,0,0,.9.75q3.23,2.1,4.44,2.94l.83.56A5.19,5.19,0,0,0,7,8.52a2.68,2.68,0,0,0,1,.21H8a2.68,2.68,0,0,0,1-.21,5.21,5.21,0,0,0,.9-.41l.83-.56q1.52-1,4.49-2.94A4.83,4.83,0,0,0,16,3.87Zm0-2.5a2.19,2.19,0,0,1-.44,1.29,4.15,4.15,0,0,1-1.09,1L10.29,6.47l-.38.26-.48.33L9,7.33a2.75,2.75,0,0,1-.51.23A1.48,1.48,0,0,1,8,7.64H8a1.48,1.48,0,0,1-.45-.08,2.75,2.75,0,0,1-.51-.23l-.47-.27-.48-.33-.38-.26L3.37,4.91,1.57,3.7a4.36,4.36,0,0,1-1.08-1A1.94,1.94,0,0,1,0,1.55,1.66,1.66,0,0,1,.37.45,1.3,1.3,0,0,1,1.43,0H14.57a1.42,1.42,0,0,1,1,.4A1.27,1.27,0,0,1,16,1.36Z"/></g></g></g></g></g></svg>